<svg width="750" height="143" viewBox="0 0 750 143" fill="none" xmlns="http://www.w3.org/2000/svg">
<path d="M98.5648 142.815C152.999 142.815 197.13 98.6867 197.13 44.2497H185.773V35.4052H174.416V26.5552H163.059V17.7053H151.7V8.84452H140.343V0H56.8464V8.84452H45.4788V17.7053H34.1219V26.5552L22.7651 26.5309V35.3808L11.3974 35.4052V44.2497H0C0 98.6867 44.1306 142.815 98.5648 142.815Z" fill="#A5892B"/>
<path fill-rule="evenodd" clip-rule="evenodd" d="M235.979 79.9951L261.89 10.5035H274.795L300.705 79.9951H287.601L281.843 64.4091H254.642L248.884 79.9951H235.979ZM258.415 53.2903H278.071L268.343 24.501L258.415 53.2903ZM303.882 79.9951V70.4648L328.006 40.8812H305.868V30.3583H342.699V39.8882L318.377 69.4722H343.393V79.9951H303.882ZM354.612 79.9951V9.0144H366.227V49.0214L381.912 30.3583H396.902L375.955 53.6874L398.192 79.9951H383.401L366.227 58.4528V79.9951H354.612ZM424.798 81.1864C409.61 81.1864 400.277 70.0677 400.277 55.1765C400.277 40.6825 410.304 29.167 424.897 29.167C440.086 29.167 449.319 39.6899 449.319 54.1839C449.319 55.4742 449.219 57.4598 449.021 58.6511H411.793C412.19 65.9976 417.849 70.6635 425.791 70.6635C431.549 70.6635 435.023 68.1815 438.001 63.1184L447.73 67.3872C444.057 75.6268 435.718 81.1864 424.798 81.1864ZM411.793 49.9151H437.604C437.207 43.8594 431.846 39.6899 424.997 39.6899C417.948 39.6899 412.289 44.0577 411.793 49.9151ZM461.033 79.9951V30.3583H471.159L472.548 37.3072C475.03 32.6417 480.888 29.167 487.242 29.167C500.047 29.167 506.401 36.7117 506.401 50.6099V79.9951H494.786V53.3897C494.786 44.5542 491.709 39.6899 484.859 39.6899C478.008 39.6899 472.648 46.1427 472.648 59.7431V79.9951H461.033ZM542.338 81.1864C528.043 81.1864 517.719 69.6705 517.719 55.1765C517.719 40.6825 528.043 29.167 542.338 29.167C548.791 29.167 554.748 31.9464 557.726 35.6198L559.116 30.3583H569.241V79.9951H559.116L557.726 74.7336C554.946 78.4066 548.791 81.1864 542.338 81.1864ZM544.324 70.6635C552.762 70.6635 558.917 64.012 558.917 55.1765C558.917 46.341 552.762 39.6899 544.324 39.6899C535.787 39.6899 529.632 46.341 529.632 55.1765C529.632 64.012 535.787 70.6635 544.324 70.6635ZM585.126 79.9951V9.0144H596.74V49.0214L612.426 30.3583H627.416L606.47 53.6874L628.706 79.9951H613.915L596.74 58.4528V79.9951H585.126ZM224.13 126.6L228.666 100.86H231.726L229.926 110.868C231.078 109.572 233.238 108.168 235.866 108.168C240.438 108.168 243.102 111.588 243.138 115.728C243.174 122.244 238.998 127.032 233.13 127.032C229.89 127.032 228.198 125.232 227.514 124.188L226.65 126.6H224.13ZM233.238 124.116C237.342 124.116 239.97 120.552 239.97 116.124C239.97 113.388 238.278 111.084 235.182 111.084C231.474 111.084 228.378 114.684 228.378 118.824C228.378 121.956 230.286 124.116 233.238 124.116ZM244.326 133.8L248.25 126.24L244.65 108.6H247.782L250.338 122.208L257.358 108.6H260.562L247.458 133.8H244.326ZM266.718 126.6L271.146 101.4H277.086C283.818 101.4 287.922 105.756 287.958 111.516C287.994 120.12 282.522 126.6 273.774 126.6H266.718ZM276.654 104.424H273.882L270.498 123.576H274.278C280.29 123.576 284.61 118.788 284.61 112.164C284.61 107.412 281.658 104.424 276.654 104.424ZM297.174 127.032C292.278 127.032 289.362 123.72 289.326 119.292C289.326 112.956 293.646 108.168 299.55 108.168C304.41 108.168 307.362 111.516 307.362 115.98C307.434 121.92 303.33 127.032 297.174 127.032ZM297.57 124.116C301.134 124.116 304.23 120.732 304.23 116.52C304.23 113.208 302.178 111.084 299.154 111.084C295.518 111.084 292.494 114.468 292.494 118.716C292.494 122.028 294.546 124.116 297.57 124.116ZM308.802 126.6L311.97 108.6H314.562V110.796C315.822 109.212 317.694 108.168 320.07 108.168C323.598 108.168 325.506 110.436 325.506 113.676C325.506 114.36 325.434 115.044 325.326 115.764L323.418 126.6H320.358L322.194 116.052C322.302 115.512 322.338 115.008 322.338 114.576C322.338 112.308 321.042 111.084 319.098 111.084C316.758 111.084 314.202 113.172 313.338 118.068L311.826 126.6H308.802ZM335.19 127.032C330.294 127.032 327.378 123.72 327.342 119.292C327.342 112.956 331.662 108.168 337.566 108.168C342.426 108.168 345.378 111.516 345.378 115.98C345.45 121.92 341.346 127.032 335.19 127.032ZM335.586 124.116C339.15 124.116 342.246 120.732 342.246 116.52C342.246 113.208 340.194 111.084 337.17 111.084C333.534 111.084 330.51 114.468 330.51 118.716C330.51 122.028 332.562 124.116 335.586 124.116ZM351.03 127.032C347.862 127.032 345.846 124.98 345.306 122.1L348.078 121.236C348.438 122.928 349.41 124.188 351.426 124.188C353.262 124.188 354.702 122.784 354.702 121.308C354.702 120.012 354.09 119.292 352.506 118.464L350.85 117.564C349.374 116.808 348.078 115.44 348.078 113.352C348.042 110.472 350.13 108.168 353.514 108.168C355.962 108.168 357.582 109.5 358.23 111.696L355.53 112.776C355.242 111.624 354.486 111.012 353.334 111.012C352.002 111.012 350.994 111.876 350.994 112.992C350.994 114.144 351.606 114.612 352.614 115.152L354.738 116.304C356.466 117.204 357.618 118.716 357.654 120.84C357.726 123.792 355.71 127.032 351.03 127.032ZM360.102 126.6L362.766 111.516H360.282L360.786 108.6H363.27L364.134 103.668L367.302 103.056L366.33 108.6H369.966L369.426 111.516H365.826L363.162 126.6H360.102ZM372.306 104.928L372.918 101.4H376.338L375.726 104.928H372.306ZM368.67 126.6L371.838 108.6H374.898L371.73 126.6H368.67ZM383.574 127.032C379.038 127.032 376.23 123.684 376.194 119.292C376.158 112.956 380.622 108.168 386.166 108.168C389.226 108.168 391.062 109.752 391.818 110.94L392.682 108.6H395.274L392.07 126.6H389.514V124.512C388.218 125.88 386.418 127.032 383.574 127.032ZM384.33 124.116C388.218 124.116 390.99 120.336 390.99 116.232C390.99 113.424 389.118 111.084 386.238 111.084C382.35 111.084 379.398 114.432 379.398 118.752C379.398 121.884 381.27 124.116 384.33 124.116ZM410.286 127.032C406.218 127.032 403.41 124.476 402.906 120.228L406.11 119.436C406.47 121.452 407.406 123.792 410.682 123.792C413.49 123.792 415.506 121.776 415.506 119.292C415.506 117.384 414.246 116.16 412.518 114.936C412.05 114.612 410.106 113.244 409.674 112.992C407.874 111.768 406.794 109.716 406.758 107.592C406.722 103.776 409.602 100.968 413.67 100.968C416.514 100.968 418.89 102.768 419.502 106.008L416.478 107.016C416.118 105.216 415.182 104.208 413.31 104.208C411.474 104.208 410.07 105.504 410.07 107.124C410.07 108.708 410.754 109.572 412.23 110.58C412.554 110.832 414.966 112.524 415.29 112.74C417.414 114.252 418.782 116.448 418.818 118.896C418.89 123.432 415.506 127.032 410.286 127.032ZM427.782 127.032C423.246 127.032 420.438 123.684 420.402 119.292C420.366 112.956 424.83 108.168 430.374 108.168C433.434 108.168 435.27 109.752 436.026 110.94L436.89 108.6H439.482L436.278 126.6H433.722V124.512C432.426 125.88 430.626 127.032 427.782 127.032ZM428.538 124.116C432.426 124.116 435.198 120.336 435.198 116.232C435.198 113.424 433.326 111.084 430.446 111.084C426.558 111.084 423.606 114.432 423.606 118.752C423.606 121.884 425.478 124.116 428.538 124.116ZM440.922 126.6L444.09 108.6H446.682V110.796C447.942 109.212 449.814 108.168 452.19 108.168C455.718 108.168 457.626 110.436 457.626 113.676C457.626 114.36 457.554 115.044 457.446 115.764L455.538 126.6H452.478L454.314 116.052C454.422 115.512 454.458 115.008 454.458 114.576C454.458 112.308 453.162 111.084 451.218 111.084C448.878 111.084 446.322 113.172 445.458 118.068L443.946 126.6H440.922ZM473.43 127.032C469.362 127.032 466.554 124.476 466.05 120.228L469.254 119.436C469.614 121.452 470.55 123.792 473.826 123.792C476.634 123.792 478.65 121.776 478.65 119.292C478.65 117.384 477.39 116.16 475.662 114.936C475.194 114.612 473.25 113.244 472.818 112.992C471.018 111.768 469.938 109.716 469.902 107.592C469.866 103.776 472.746 100.968 476.814 100.968C479.658 100.968 482.034 102.768 482.646 106.008L479.622 107.016C479.262 105.216 478.326 104.208 476.454 104.208C474.618 104.208 473.214 105.504 473.214 107.124C473.214 108.708 473.898 109.572 475.374 110.58C475.698 110.832 478.11 112.524 478.434 112.74C480.558 114.252 481.926 116.448 481.962 118.896C482.034 123.432 478.65 127.032 473.43 127.032ZM491.43 127.032C486.462 127.032 483.546 123.792 483.546 119.256C483.546 113.28 487.29 108.168 493.662 108.168C498.198 108.168 500.646 111.516 500.646 115.656C500.646 116.7 500.43 117.816 500.142 118.644H486.678C486.678 122.136 488.586 124.116 491.646 124.116C493.842 124.116 495.714 122.82 496.866 120.912L499.422 122.568C497.91 124.944 495.318 127.032 491.43 127.032ZM487.11 116.016H497.658C497.838 113.172 496.11 111.084 493.266 111.084C490.206 111.084 487.974 113.172 487.11 116.016ZM501.582 126.6L506.118 100.86H509.178L507.378 110.868C508.53 109.572 510.69 108.168 513.318 108.168C517.89 108.168 520.554 111.588 520.59 115.728C520.626 122.244 516.45 127.032 510.582 127.032C507.342 127.032 505.65 125.232 504.966 124.188L504.102 126.6H501.582ZM510.69 124.116C514.794 124.116 517.422 120.552 517.422 116.124C517.422 113.388 515.73 111.084 512.634 111.084C508.926 111.084 505.83 114.684 505.83 118.824C505.83 121.956 507.738 124.116 510.69 124.116ZM529.446 127.032C524.91 127.032 522.102 123.684 522.066 119.292C522.03 112.956 526.494 108.168 532.038 108.168C535.098 108.168 536.934 109.752 537.69 110.94L538.554 108.6H541.146L537.942 126.6H535.386V124.512C534.09 125.88 532.29 127.032 529.446 127.032ZM530.202 124.116C534.09 124.116 536.862 120.336 536.862 116.232C536.862 113.424 534.99 111.084 532.11 111.084C528.222 111.084 525.27 114.432 525.27 118.752C525.27 121.884 527.142 124.116 530.202 124.116ZM546.798 127.032C543.63 127.032 541.614 124.98 541.074 122.1L543.846 121.236C544.206 122.928 545.178 124.188 547.194 124.188C549.03 124.188 550.47 122.784 550.47 121.308C550.47 120.012 549.858 119.292 548.274 118.464L546.618 117.564C545.142 116.808 543.846 115.44 543.846 113.352C543.81 110.472 545.898 108.168 549.282 108.168C551.73 108.168 553.35 109.5 553.998 111.696L551.298 112.776C551.01 111.624 550.254 111.012 549.102 111.012C547.77 111.012 546.762 111.876 546.762 112.992C546.762 114.144 547.374 114.612 548.382 115.152L550.506 116.304C552.234 117.204 553.386 118.716 553.422 120.84C553.494 123.792 551.478 127.032 546.798 127.032ZM555.87 126.6L558.534 111.516H556.05L556.554 108.6H559.038L559.902 103.668L563.07 103.056L562.098 108.6H565.734L565.194 111.516H561.594L558.93 126.6H555.87ZM568.074 104.928L568.686 101.4H572.106L571.494 104.928H568.074ZM564.438 126.6L567.606 108.6H570.666L567.498 126.6H564.438ZM581.538 105.972L584.634 101.4H588.63L584.382 105.972H581.538ZM579.342 127.032C574.806 127.032 571.998 123.684 571.962 119.292C571.926 112.956 576.39 108.168 581.934 108.168C584.994 108.168 586.83 109.752 587.586 110.94L588.45 108.6H591.042L587.838 126.6H585.282V124.512C583.986 125.88 582.186 127.032 579.342 127.032ZM580.098 124.116C583.986 124.116 586.758 120.336 586.758 116.232C586.758 113.424 584.886 111.084 582.006 111.084C578.118 111.084 575.166 114.432 575.166 118.752C575.166 121.884 577.038 124.116 580.098 124.116ZM592.482 126.6L595.65 108.6H598.242V110.796C599.502 109.212 601.374 108.168 603.75 108.168C607.278 108.168 609.186 110.436 609.186 113.676C609.186 114.36 609.114 115.044 609.006 115.764L607.098 126.6H604.038L605.874 116.052C605.982 115.512 606.018 115.008 606.018 114.576C606.018 112.308 604.722 111.084 602.778 111.084C600.438 111.084 597.882 113.172 597.018 118.068L595.506 126.6H592.482ZM622.506 126.6L626.43 104.424H619.554L620.058 101.4H636.906L636.366 104.424H629.706L625.746 126.6H622.506ZM638.094 127.032C634.422 127.032 632.55 124.584 632.55 121.488C632.55 120.768 632.658 120.084 632.766 119.292L634.674 108.6H637.698L635.826 119.256C635.718 119.724 635.682 120.192 635.682 120.588C635.682 122.748 637.087 124.116 639.067 124.116C641.874 124.116 644.034 121.92 644.754 117.816L646.374 108.6H649.434L646.266 126.6H643.674V124.62C642.45 126.024 640.578 127.032 638.094 127.032ZM650.37 126.6L653.538 108.6H656.13V110.904C657.246 109.176 658.974 108.168 660.954 108.168C662.286 108.168 663.222 108.564 663.87 108.996L662.394 112.056C661.782 111.624 660.954 111.372 660.126 111.372C657.858 111.372 655.806 113.064 655.086 117.204L653.43 126.6H650.37ZM665.814 104.928L666.426 101.4H669.846L669.234 104.928H665.814ZM662.178 126.6L665.346 108.6H668.406L665.238 126.6H662.178ZM673.95 127.032C670.782 127.032 668.766 124.98 668.226 122.1L670.998 121.236C671.359 122.928 672.33 124.188 674.346 124.188C676.182 124.188 677.622 122.784 677.622 121.308C677.622 120.012 677.01 119.292 675.426 118.464L673.771 117.564C672.294 116.808 670.998 115.44 670.998 113.352C670.962 110.472 673.05 108.168 676.434 108.168C678.882 108.168 680.502 109.5 681.15 111.696L678.45 112.776C678.162 111.624 677.406 111.012 676.254 111.012C674.922 111.012 673.914 111.876 673.914 112.992C673.914 114.144 674.526 114.612 675.534 115.152L677.658 116.304C679.386 117.204 680.538 118.716 680.574 120.84C680.646 123.792 678.63 127.032 673.95 127.032ZM683.058 126.6L686.226 108.6H688.819V110.832C690.006 109.284 691.662 108.168 693.93 108.168C696.774 108.168 698.034 109.32 698.718 111.192C699.762 109.644 701.706 108.168 704.406 108.168C708.114 108.168 709.842 110.472 709.842 113.352C709.842 114.072 709.77 114.864 709.626 115.656L707.646 126.6H704.586L706.566 115.512C706.674 115.008 706.71 114.576 706.71 114.18C706.71 112.092 705.594 111.084 703.867 111.084C701.526 111.084 699.222 113.28 698.394 118.068L696.882 126.6H693.822L695.766 115.512C695.874 115.008 695.91 114.54 695.91 114.144C695.91 112.056 694.794 111.084 693.066 111.084C690.762 111.084 688.458 113.28 687.594 118.068L686.082 126.6H683.058ZM719.239 127.032C714.342 127.032 711.426 123.72 711.39 119.292C711.39 112.956 715.71 108.168 721.614 108.168C726.474 108.168 729.426 111.516 729.426 115.98C729.498 121.92 725.395 127.032 719.239 127.032ZM719.634 124.116C723.199 124.116 726.294 120.732 726.294 116.52C726.294 113.208 724.242 111.084 721.219 111.084C717.582 111.084 714.558 114.468 714.558 118.716C714.558 122.028 716.61 124.116 719.634 124.116ZM738.21 127.032C733.674 127.032 730.866 123.684 730.83 119.292C730.794 112.956 735.258 108.168 740.802 108.168C743.862 108.168 745.698 109.752 746.454 110.94L747.318 108.6H749.91L746.706 126.6H744.15V124.512C742.854 125.88 741.054 127.032 738.21 127.032ZM738.966 124.116C742.855 124.116 745.626 120.336 745.626 116.232C745.626 113.424 743.754 111.084 740.874 111.084C736.986 111.084 734.034 114.432 734.034 118.752C734.034 121.884 735.906 124.116 738.966 124.116Z" fill="white"/>
</svg>
