<svg width="180" height="41" viewBox="0 0 180 41" fill="none" xmlns="http://www.w3.org/2000/svg">
<path d="M27.7211 40.1931C43.0315 40.1931 55.4422 27.7744 55.4422 12.454H51.6228V9.3405H47.8057V6.227H43.9864V3.1135H40.167V0H15.2728V3.1135H11.4534V6.23171L7.63641 6.22465V9.33579L3.81703 9.3405V12.454H0C0 27.7744 12.4106 40.1931 27.7211 40.1931Z" fill="#A6892B"/>
<path d="M82.079 14.1106C82.079 12.7998 81.2159 11.8843 80.0611 11.8843C78.8899 11.8843 78.0456 12.7998 78.0456 14.1106C78.0456 15.405 78.8899 16.3345 80.0611 16.3345C81.2159 16.3345 82.079 15.405 82.079 14.1106ZM75.4069 14.1106C75.4069 11.4372 77.4412 9.59216 80.0611 9.59216C82.6646 9.59216 84.7154 11.4372 84.7154 14.1106C84.7154 16.784 82.6646 18.6291 80.0611 18.6291C77.4412 18.6291 75.4069 16.784 75.4069 14.1106Z" fill="#A6892B"/>
<path d="M68.0315 15.6781H66.4346V9.10519L68.0315 9.09813C69.8471 9.09813 71.3194 10.5713 71.3194 12.3881C71.3194 14.2049 69.8471 15.6781 68.0315 15.6781ZM67.841 6.34705H63.8076V18.4222H67.841C71.738 18.4222 74.0992 15.8711 74.0992 12.3858C74.0992 8.91692 71.8579 6.34705 67.841 6.34705Z" fill="#A6892B"/>
<path d="M103.189 14.1106C103.189 12.7998 102.328 11.8843 101.174 11.8843C100 11.8843 99.1557 12.7998 99.1557 14.1106C99.1557 15.405 100 16.3345 101.174 16.3345C102.328 16.3345 103.189 15.405 103.189 14.1106ZM96.5193 14.1106C96.5193 11.4372 98.5513 9.59216 101.174 9.59216C103.777 9.59216 105.828 11.4372 105.828 14.1106C105.828 16.784 103.777 18.6291 101.174 18.6291C98.5513 18.6291 96.5193 16.784 96.5193 14.1106Z" fill="#A6892B"/>
<path d="M79.7531 29.2782C79.7531 27.9156 78.857 27.0355 77.6999 27.0355C76.5287 27.0355 75.6327 27.9156 75.6327 29.2782C75.6327 30.6408 76.5287 31.521 77.6999 31.521C78.857 31.521 79.7531 30.6408 79.7531 29.2782ZM72.9939 29.2782C72.9939 26.3812 75.0823 24.7598 77.1496 24.7598C78.2714 24.7598 79.1651 25.2093 79.6143 25.6917L79.873 24.9645H82.2695V33.5919H79.9765L79.6143 32.8153C79.2357 33.246 78.4078 33.799 77.0461 33.799C74.8565 33.799 72.9939 32.0034 72.9939 29.2782Z" fill="#A6892B"/>
<path d="M62.9116 30.6078L65.2563 29.6406C65.5832 30.7114 66.4276 31.3491 67.4106 31.3491C68.2714 31.3491 68.8758 30.8832 68.8758 30.1583C68.8758 29.5723 68.5301 29.1064 67.5141 28.5886C67.2719 28.4686 66.0324 27.8473 65.8255 27.7273C64.7225 27.1578 63.7394 26.1741 63.7394 24.4326C63.7394 22.5876 65.2046 21.2932 67.4271 21.2932C69.2733 21.2932 70.2893 22.0863 70.8419 23.4324L68.5842 24.5879C68.3584 24.0349 67.9798 23.6725 67.4271 23.6725C66.9285 23.6725 66.5475 23.9478 66.5475 24.3973C66.5475 24.828 66.7733 25.1386 67.4459 25.501C67.5823 25.5693 69.031 26.3294 69.1698 26.4165C70.8584 27.3131 71.651 28.4168 71.651 30.1419C71.651 32.074 70.0141 33.7802 67.4106 33.7802C64.9459 33.7802 63.6006 32.5729 62.9116 30.6078Z" fill="#A6892B"/>
<path d="M164.948 21.5167H167.81L166.035 23.7077H163.812L164.948 21.5167ZM166.931 29.2781C166.931 27.9155 166.035 27.0354 164.88 27.0354C163.707 27.0354 162.81 27.9155 162.81 29.2781C162.81 30.6407 163.707 31.5209 164.88 31.5209C166.035 31.5209 166.931 30.6407 166.931 29.2781ZM160.174 29.2781C160.174 26.3811 162.258 24.7597 164.327 24.7597C165.447 24.7597 166.345 25.2068 166.792 25.6916L167.053 24.9668H169.447V33.5895H167.154L166.792 32.8152C166.413 33.2459 165.586 33.7966 164.224 33.7966C162.034 33.7966 160.174 32.0057 160.174 29.2781Z" fill="#A6892B"/>
<path d="M175.901 24.7574C173.638 24.7574 171.804 26.5931 171.804 28.8594V33.592H174.433V28.6946C174.433 27.8757 175.096 27.212 175.915 27.212C176.733 27.212 177.396 27.8757 177.396 28.6946V33.592H179.995L180 31.2104V28.8594C180 26.5931 178.166 24.7574 175.901 24.7574Z" fill="#A6892B"/>
<path d="M88.5795 24.7574C86.317 24.7574 84.4802 26.5931 84.4802 28.8594V33.592H87.1096V28.6946C87.1096 27.8757 87.7751 27.212 88.5936 27.212C89.412 27.212 90.0752 27.8757 90.0752 28.6946V29.5465L90.0729 33.592H92.674L92.6787 31.2104V28.8594C92.6787 26.5931 90.8419 24.7574 88.5795 24.7574Z" fill="#A6892B"/>
<path d="M90.6702 9.58765C88.4078 9.58765 86.571 11.4233 86.571 13.6896V18.4222H89.2003V13.5248C89.2003 12.7059 89.8659 12.0422 90.6843 12.0422C91.5028 12.0422 92.166 12.7059 92.166 13.5248V14.3744L92.1636 18.4222H94.7648L94.7695 16.0406V13.6896C94.7695 11.4233 92.9327 9.58765 90.6702 9.58765Z" fill="#A6892B"/>
<path d="M155.644 24.9645H158.269V33.5919H155.644V24.9645ZM155.612 21.3333H158.307V23.8749H155.612V21.3333Z" fill="#A6892B"/>
<path d="M98.436 30.6078L100.781 29.6406C101.108 30.7114 101.952 31.3491 102.935 31.3491C103.796 31.3491 104.4 30.8832 104.4 30.1583C104.4 29.5723 104.057 29.1064 103.039 28.5886C102.796 28.4686 101.557 27.8473 101.35 27.7273C100.247 27.1578 99.2639 26.1741 99.2639 24.4326C99.2639 22.5876 100.729 21.2932 102.952 21.2932C104.798 21.2932 105.814 22.0863 106.366 23.4324L104.109 24.5879C103.883 24.0349 103.504 23.6725 102.952 23.6725C102.453 23.6725 102.072 23.9478 102.072 24.3973C102.072 24.828 102.298 25.1386 102.97 25.501C103.107 25.5693 104.556 26.3294 104.694 26.4165C106.383 27.3131 107.175 28.4168 107.175 30.1419C107.175 32.074 105.539 33.7802 102.935 33.7802C100.47 33.7802 99.1251 32.5729 98.436 30.6078Z" fill="#A6892B"/>
<path d="M114.657 28.1745C114.553 27.4332 113.864 26.8119 112.916 26.8119C111.952 26.8119 111.261 27.4497 111.157 28.1745H114.657ZM108.521 29.2617C108.521 26.5883 110.296 24.7433 112.916 24.7433C115.882 24.7433 117.328 26.7766 117.328 28.9864C117.328 29.297 117.295 29.6571 117.225 29.9513H111.141C111.277 30.935 112.02 31.521 113.053 31.521C113.984 31.521 114.501 31.0903 114.847 30.5043L117.001 31.5563C116.261 32.9706 114.847 33.7802 112.916 33.7802C110.296 33.7802 108.521 31.9516 108.521 29.2617Z" fill="#A6892B"/>
<path d="M125.811 29.2806C125.811 27.9344 124.948 27.0543 123.758 27.0543C122.587 27.0543 121.639 27.9344 121.639 29.2806C121.639 30.6243 122.552 31.5045 123.725 31.5045C124.88 31.5045 125.811 30.6243 125.811 29.2806ZM121.623 32.7118L121.329 33.5943H119.123V21.2579H121.743V25.7952C122.277 25.2445 123.173 24.7621 124.346 24.7621C126.484 24.7621 128.431 26.28 128.431 29.2806C128.431 32.1093 126.414 33.799 124.208 33.799C122.985 33.799 122.053 33.2813 121.623 32.7118Z" fill="#A6892B"/>
<path d="M136.773 29.2782C136.773 27.9156 135.877 27.0355 134.72 27.0355C133.549 27.0355 132.653 27.9156 132.653 29.2782C132.653 30.6408 133.549 31.521 134.72 31.521C135.877 31.521 136.773 30.6408 136.773 29.2782ZM130.016 29.2782C130.016 26.3812 132.103 24.7598 134.17 24.7598C135.292 24.7598 136.188 25.2093 136.635 25.6917L136.893 24.9645H139.29V33.5919H136.997L136.635 32.8153C136.256 33.246 135.428 33.799 134.066 33.799C131.877 33.799 130.016 32.0034 130.016 29.2782Z" fill="#A6892B"/>
<path d="M140.858 31.5021L142.825 30.589C143.151 31.3467 143.737 31.7092 144.393 31.7092C145.047 31.7092 145.358 31.382 145.358 31.0361C145.358 30.6407 145.066 30.3819 144.325 30.1042L143.203 29.69C142.084 29.2781 141.411 28.4309 141.411 27.1719C141.411 25.7763 142.653 24.7408 144.342 24.7408C145.755 24.7408 146.686 25.3104 147.185 26.3458L145.289 27.3813C145.118 26.9671 144.807 26.6894 144.41 26.6894C144.048 26.6894 143.808 26.8965 143.808 27.1719C143.808 27.466 143.996 27.6214 144.358 27.7602L145.564 28.2073C146.893 28.6921 147.738 29.5017 147.738 31.0196C147.738 32.6246 146.392 33.7778 144.342 33.7778C142.498 33.7778 141.324 32.8647 140.858 31.5021Z" fill="#A6892B"/>
<path d="M149.96 27.019H148.718V24.9646H149.96V22.6889L152.561 22.1899V24.9646H154.391V27.019H152.561V33.5896H149.96V27.019Z" fill="#A6892B"/>
<path d="M121.745 9.79713H124.37V18.4246H121.745V9.79713ZM121.71 6.16589H124.405V8.70757H121.71V6.16589Z" fill="#A6892B"/>
<path d="M116.061 11.8492H114.819V9.79711H116.061V7.52141L118.664 7.02014V9.79711H120.492V11.8492H118.664V18.4222H116.061V11.8492Z" fill="#A6892B"/>
<path d="M106.827 16.3536L108.791 15.4382C109.12 16.1983 109.706 16.5607 110.36 16.5607C111.016 16.5607 111.326 16.2336 111.326 15.8877C111.326 15.4923 111.035 15.2311 110.292 14.9557L109.172 14.5415C108.053 14.1297 107.378 13.2825 107.378 12.0234C107.378 10.6255 108.619 9.59241 110.308 9.59241C111.724 9.59241 112.655 10.1619 113.154 11.1974L111.258 12.2305C111.087 11.8163 110.776 11.541 110.379 11.541C110.016 11.541 109.774 11.7481 109.774 12.0234C109.774 12.3176 109.965 12.4729 110.327 12.6118L111.533 13.0589C112.86 13.5414 113.704 14.3533 113.704 15.8712C113.704 17.4762 112.361 18.6317 110.308 18.6317C108.464 18.6317 107.293 17.7162 106.827 16.3536Z" fill="#A6892B"/>
<path d="M133.032 14.1106C133.032 12.748 132.135 11.8679 130.978 11.8679C129.807 11.8679 128.911 12.748 128.911 14.1106C128.911 15.4732 129.807 16.3534 130.978 16.3534C132.135 16.3534 133.032 15.4732 133.032 14.1106ZM126.272 14.1106C126.272 11.2136 128.361 9.59216 130.428 9.59216C131.55 9.59216 132.444 10.0393 132.893 10.5217L133.151 9.79691H135.548V18.422H133.255L132.893 17.6454C132.514 18.0784 131.686 18.6291 130.325 18.6291C128.135 18.6291 126.272 16.8358 126.272 14.1106Z" fill="#A6892B"/>
</svg>
