<svg width="169" height="115" viewBox="0 0 169 115" fill="none" xmlns="http://www.w3.org/2000/svg">
<path d="M90.2445 74.5709V97.308H79.089V74.5709C79.4922 74.302 79.8281 74.033 80.1645 73.7637C81.9786 72.4186 82.6508 71.8804 84.6667 71.8804C86.6827 71.8804 87.3545 72.4186 89.169 73.7637C89.5049 74.0331 89.8413 74.302 90.2445 74.5709ZM40.8522 76.9256C39.5754 77.4639 38.2986 77.7328 36.9545 77.7328C34.2667 77.7328 31.6459 76.5894 29.6972 74.7056C27.7481 72.755 26.6731 70.1313 26.6731 67.3735V66.3643H12.6954V13.8941C12.6954 12.2123 11.2845 10.7995 9.60445 10.7995H3.75769C2.01083 10.7995 0.666748 12.2123 0.666748 13.8941V111.906C0.666748 113.588 2.01083 115 3.75769 115H9.60445C11.2845 115 12.6954 113.588 12.6954 111.906V80.6254H36.8204V111.906C36.8204 113.588 38.2313 115 39.9113 115H45.7577C47.4377 115 48.849 113.588 48.849 111.906V72.082C47.9081 72.3513 47.169 72.8892 45.9595 73.7637C44.6827 74.7729 43.0699 75.9837 40.8522 76.9256ZM165.575 10.7995H159.729C158.049 10.7995 156.638 12.2123 156.638 13.8941V66.3642H142.66V67.3734C142.66 73.0238 138.024 77.7328 132.379 77.7328C131.035 77.7328 129.758 77.4639 128.481 76.9256C126.264 75.9837 124.651 74.7729 123.307 73.7637C122.164 72.8892 121.425 72.3513 120.484 72.082V111.906C120.484 113.588 121.828 115 123.575 115H129.422C131.102 115 132.513 113.588 132.513 111.906V80.6254H156.638V111.906C156.638 113.588 158.049 115 159.729 115H165.575C167.255 115 168.667 113.588 168.667 111.906V13.8941C168.667 12.2123 167.255 10.7995 165.575 10.7995ZM135.922 67.3513V30.7139C135.922 27.3381 133.189 24.602 129.817 24.602H118.304V16.5193C121.379 15.2087 123.536 12.1598 123.536 8.6033V2.647C123.536 1.18492 122.353 0 120.892 0H108.992C107.531 0 106.348 1.18494 106.348 2.647V8.6033C106.348 12.1618 108.507 15.2132 111.584 16.5226V24.602H57.7392V16.5226C60.8166 15.2132 62.9761 12.1618 62.9761 8.6033V2.647C62.9761 1.18492 61.7919 0 60.3314 0H48.4311C46.9709 0 45.7868 1.18494 45.7868 2.647V8.6033C45.7868 12.1598 47.9446 15.2087 51.0192 16.5193V24.602H39.5065C36.1346 24.602 33.4013 27.3381 33.4013 30.7139V67.3533C33.4013 69.8386 35.9291 71.6808 38.2186 70.7189C42.4194 68.9538 43.951 65.183 50.4938 65.183C59.0357 65.183 59.0357 71.6102 67.5776 71.6102C76.1199 71.6102 76.1199 65.183 84.6705 65.183C93.2124 65.183 93.2124 71.6102 101.754 71.6102C110.296 71.6102 110.296 65.183 118.838 65.183C125.378 65.183 126.911 68.9505 131.104 70.7164C133.393 71.6804 135.922 69.8373 135.922 67.3513ZM100.43 104.007H68.893C64.727 104.007 61.3494 107.387 61.3494 111.558C61.3494 113.453 62.8842 114.989 64.7775 114.989H104.546C106.439 114.989 107.974 113.453 107.974 111.558C107.974 107.387 104.597 104.007 100.43 104.007Z" fill="#B3B3B3"/>
</svg>
